<svg width="68" height="68" viewBox="0 0 68 68" fill="none" xmlns="http://www.w3.org/2000/svg">
<circle cx="34" cy="34" r="34" fill="#191917"/>
<path d="M18.402 44.9753H17.1864C16.9321 44.9753 16.7212 45.1862 16.7212 45.4405C16.7212 45.6948 16.9321 45.9056 17.1864 45.9056H18.402C18.5253 45.9056 18.6437 45.8566 18.7309 45.7694C18.8181 45.6822 18.8671 45.5639 18.8671 45.4405C18.8671 45.3171 18.8181 45.1988 18.7309 45.1116C18.6437 45.0243 18.5253 44.9753 18.402 44.9753ZM22.2039 44.9753H20.9883C20.734 44.9753 20.5231 45.1862 20.5231 45.4405C20.5231 45.6948 20.734 45.9056 20.9883 45.9056H22.2039C22.4582 45.9056 22.6691 45.6948 22.6691 45.4405C22.6691 45.1862 22.4582 44.9753 22.2039 44.9753ZM19.6982 42.4634C19.4439 42.4634 19.2331 42.6743 19.2331 42.9286V44.1442C19.2331 44.3985 19.4439 44.6094 19.6982 44.6094C19.9525 44.6094 20.1634 44.3985 20.1634 44.1442V42.9286C20.1634 42.6743 19.9525 42.4634 19.6982 42.4634ZM19.6982 46.2654C19.4439 46.2654 19.2331 46.4762 19.2331 46.7305V47.9462C19.2331 48.2004 19.4439 48.4113 19.6982 48.4113C19.9525 48.4113 20.1634 48.2004 20.1634 47.9462V46.7305C20.1634 46.4762 19.9525 46.2654 19.6982 46.2654ZM48.7491 49.9929H47.5335C47.2792 49.9929 47.0684 50.2037 47.0684 50.458C47.0684 50.7123 47.2792 50.9232 47.5335 50.9232H48.7491C49.0034 50.9232 49.2143 50.7123 49.2143 50.458C49.2143 50.2037 49.0034 49.9929 48.7491 49.9929ZM52.5511 49.9929H51.3355C51.0812 49.9929 50.8703 50.2037 50.8703 50.458C50.8703 50.7123 51.0812 50.9232 51.3355 50.9232H52.5511C52.8054 50.9232 53.0162 50.7123 53.0162 50.458C53.0162 50.2037 52.8054 49.9929 52.5511 49.9929ZM50.0392 47.481C49.7849 47.481 49.574 47.6919 49.574 47.9462V49.1618C49.574 49.4161 49.7849 49.6269 50.0392 49.6269C50.2935 49.6269 50.5044 49.4161 50.5044 49.1618V47.9462C50.5044 47.6919 50.2997 47.481 50.0392 47.481ZM50.0392 51.2829C49.7849 51.2829 49.574 51.4938 49.574 51.7481V52.9637C49.574 53.218 49.7849 53.4289 50.0392 53.4289C50.2935 53.4289 50.5044 53.218 50.5044 52.9637V51.7481C50.5044 51.4876 50.2997 51.2829 50.0392 51.2829ZM52.9666 17.7726C52.4757 17.6119 52.0295 17.3378 51.6642 16.9725C51.2989 16.6073 51.0248 16.1611 50.8641 15.6701C50.8021 15.4778 50.6222 15.3476 50.4237 15.3476C50.2253 15.3476 50.0454 15.4778 49.9834 15.6701C49.8227 16.1611 49.5486 16.6073 49.1833 16.9725C48.818 17.3378 48.3718 17.6119 47.8808 17.7726C47.6886 17.8347 47.5583 18.0145 47.5583 18.213C47.5583 18.4115 47.6886 18.5913 47.8808 18.6533C48.8732 18.9759 49.6609 19.7635 49.9834 20.7559C50.0454 20.9481 50.2253 21.0784 50.4237 21.0784C50.6222 21.0784 50.8021 20.9481 50.8641 20.7559C51.1866 19.7635 51.9743 18.9759 52.9666 18.6533C53.1589 18.5913 53.2891 18.4115 53.2891 18.213C53.2891 18.0145 53.1589 17.8347 52.9666 17.7726ZM50.4237 19.5341C50.0865 19.0014 49.6353 18.5502 49.1027 18.213C49.6361 17.8781 50.0826 17.4253 50.4237 16.8919C50.7586 17.4253 51.2114 17.8719 51.7448 18.213C51.2114 18.5479 50.7586 19.0007 50.4237 19.5341ZM23.742 18.5231C25.0755 18.9573 26.1299 20.0178 26.5702 21.3513C26.6322 21.5436 26.8121 21.6738 27.0106 21.6738C27.209 21.6738 27.3889 21.5436 27.4509 21.3513C27.8851 20.0178 28.9456 18.9635 30.2791 18.5231C30.4714 18.4611 30.6016 18.2812 30.6016 18.0828C30.6016 17.8843 30.4714 17.7044 30.2791 17.6424C29.6195 17.4247 29.0201 17.0555 28.529 16.5644C28.0378 16.0732 27.6686 15.4738 27.4509 14.8142C27.3889 14.6219 27.209 14.4917 27.0106 14.4917C26.8121 14.4917 26.6322 14.6219 26.5702 14.8142C26.3526 15.4738 25.9833 16.0732 25.4922 16.5644C25.001 17.0555 24.4016 17.4247 23.742 17.6424C23.5498 17.7044 23.4195 17.8843 23.4195 18.0828C23.4195 18.2812 23.5498 18.4611 23.742 18.5231ZM27.0106 16.0919C27.4836 16.9184 28.1688 17.6036 28.9953 18.0765C28.1688 18.5495 27.4836 19.2347 27.0106 20.0612C26.5376 19.2347 25.8524 18.5495 25.0259 18.0765C25.8524 17.6036 26.5376 16.9184 27.0106 16.0919ZM42.7703 31.0453C42.1997 30.9894 41.6291 31.1507 41.1763 31.4856V29.7428C41.1763 28.5272 40.2646 27.4852 39.0986 27.3736C38.528 27.3178 37.9574 27.479 37.5046 27.8139V26.8712C37.5046 25.6556 36.5929 24.6136 35.4269 24.502C34.7757 24.44 34.1307 24.657 33.6531 25.0912C33.1755 25.5253 32.9026 26.1456 32.9026 26.7906V27.8139C32.4499 27.479 31.8793 27.3178 31.3087 27.3736C30.1427 27.4852 29.2309 28.5272 29.2309 29.7428V39.4988L28.3626 38.0971C27.6928 37.0055 26.3221 36.6086 25.2492 37.1978C24.691 37.5017 24.2878 38.0103 24.1266 38.6305C23.9653 39.2383 24.0646 39.8958 24.3933 40.4291L30.0248 49.5587C30.5149 50.3552 30.7746 51.2719 30.7753 52.207V53.4103C30.7753 53.6645 30.9862 53.8754 31.2404 53.8754H42.9625C43.2168 53.8754 43.4277 53.6645 43.4277 53.4103V52.5792C43.4277 51.7171 43.651 50.8612 44.0727 50.1045C44.5739 49.2103 44.8366 48.2022 44.8356 47.1771V33.4083C44.848 32.1989 43.9363 31.1569 42.7703 31.0453ZM43.9177 47.1833C43.9177 48.0454 43.6944 48.9013 43.2726 49.658C42.7715 50.5522 42.5087 51.5603 42.5098 52.5854V52.9513H31.718V52.207C31.718 51.0969 31.4079 50.0115 30.8311 49.0687L25.1995 39.9392C25.1017 39.7804 25.037 39.6035 25.0093 39.4191C24.9816 39.2348 24.9915 39.0467 25.0383 38.8662C25.1375 38.5003 25.3732 38.1964 25.7081 38.0165C26.3345 37.6754 27.178 37.9297 27.5812 38.5871L29.2372 41.2726V42.8418C29.2372 43.0961 29.448 43.3069 29.7023 43.3069C29.9566 43.3069 30.1675 43.0961 30.1675 42.8418V29.7428C30.1675 28.9986 30.7071 28.3659 31.4017 28.2977C31.7924 28.2605 32.1708 28.3845 32.4623 28.645C32.7476 28.9055 32.9088 29.2714 32.9088 29.656V35.9388C32.9088 36.1931 33.1197 36.4039 33.374 36.4039C33.6283 36.4039 33.8392 36.1931 33.8392 35.9388V26.7906C33.8392 26.406 34.0004 26.0339 34.2857 25.7796C34.5772 25.5191 34.9493 25.3951 35.3463 25.4323C36.0409 25.5005 36.5805 26.1332 36.5805 26.8774V35.9512C36.5805 36.2055 36.7914 36.4163 37.0457 36.4163C37.3 36.4163 37.5108 36.2055 37.5108 35.9512V29.6622C37.5108 29.2776 37.6721 28.9055 37.9574 28.6512C38.2489 28.3907 38.621 28.2667 39.018 28.3039C39.7126 28.3721 40.2522 29.0048 40.2522 29.749V35.9512C40.2522 36.2055 40.4631 36.4163 40.7174 36.4163C40.9716 36.4163 41.1825 36.2055 41.1825 35.9512V33.3401C41.1825 32.9555 41.3438 32.5834 41.6291 32.3291C41.9206 32.0686 42.2927 31.9446 42.6896 31.9818C43.3843 32.05 43.9239 32.6826 43.9239 33.4269V47.1833H43.9177Z" fill="#EE9505" stroke="#EE9505" stroke-width="0.5"/>
<path d="M48.9351 22.8645C47.8187 21.2953 46.2372 20.427 44.2587 20.2844C40.8971 19.8812 37.5914 20.5821 34.3973 21.2581C29.3735 22.3187 24.6289 23.3172 19.94 20.2286C19.816 20.1479 19.6671 20.1293 19.5307 20.179C19.3942 20.2286 19.2888 20.334 19.2392 20.4705C17.4158 26.04 16.1443 34.2392 18.588 39.0521C19.3818 40.3608 20.9076 41.2725 23.2458 41.8369C23.5001 41.8989 23.7482 41.7439 23.8102 41.4958C23.8722 41.2477 23.7171 40.9934 23.4691 40.9376C21.4161 40.4414 20.0393 39.6475 19.4066 38.6056C17.3227 34.4935 18.1538 27.082 19.94 21.3264C24.7901 24.2352 29.7705 23.1808 34.5833 22.1636C37.7092 21.5062 40.9405 20.824 44.1657 21.2085C45.9023 21.3326 47.2171 22.052 48.1723 23.3979C51.4718 28.0371 49.3011 38.5187 48.6374 41.3283C48.1289 41.105 47.3598 40.981 46.2558 40.9438C45.9767 40.9314 45.7844 41.136 45.772 41.3903C45.7658 41.6446 45.9643 41.8617 46.2186 41.8741C48.2467 41.9423 48.4638 42.3021 48.4824 42.3393C48.5568 42.5067 48.7243 42.6184 48.9103 42.6184H48.9475C49.146 42.606 49.3135 42.4633 49.3631 42.2772C49.5119 41.7191 52.9913 28.5767 48.9351 22.8645Z" fill="#EE9505" stroke="#EE9505" stroke-width="0.5"/>
</svg>
