<svg width="46" height="46" viewBox="0 0 46 46" fill="none" xmlns="http://www.w3.org/2000/svg">
<path d="M23.0001 7.915H23C21.4088 7.915 19.8534 8.38683 18.5304 9.27083C17.2074 10.1548 16.1763 11.4113 15.5674 12.8813C14.9585 14.3513 14.7992 15.9689 15.1096 17.5295C15.42 19.0901 16.1862 20.5236 17.3113 21.6487C18.4364 22.7738 19.8699 23.54 21.4305 23.8504C22.9911 24.1608 24.6087 24.0015 26.0787 23.3926C27.5487 22.7837 28.8052 21.7526 29.6892 20.4296C30.5732 19.1066 31.045 17.5512 31.045 15.96V15.9599C31.0426 13.827 30.1943 11.7821 28.6861 10.2739C27.1779 8.76571 25.133 7.91737 23.0001 7.915ZM45.125 22.1552V22.1551C45.1184 16.5132 42.8743 11.1044 38.885 7.11503C34.8956 3.12567 29.4868 0.88156 23.8449 0.875H23.8448L22.1552 0.875L22.1551 0.875C16.5131 0.881092 11.104 3.12505 7.11451 7.11451C3.12505 11.104 0.881092 16.5131 0.875 22.1551V22.1552L0.875 23.8448L0.875 23.8448C0.876625 28.4668 2.39264 32.961 5.19103 36.6395C5.19115 36.6397 5.19127 36.6398 5.1914 36.64L5.22256 36.6816L5.2228 36.6819C7.20096 39.3017 9.75932 41.4275 12.6971 42.8924C15.635 44.3574 18.8723 45.1215 22.1551 45.125H22.1552H23.8448H23.8449C27.1282 45.1216 30.3659 44.3573 33.3041 42.892C36.2422 41.4268 38.8008 39.3005 40.779 36.6801L40.7798 36.679L40.8033 36.6471C40.8035 36.6469 40.8037 36.6466 40.8038 36.6464C43.6056 32.9667 45.1235 28.4698 45.125 23.8448V22.1552ZM43.115 23.8448C43.1158 27.4845 42.0782 31.0474 40.1262 34.1161C38.8615 32.062 37.0998 30.3581 35.0024 29.1624C32.8467 27.9335 30.4097 27.2833 27.9284 27.275H27.928H18.072H18.0716C15.5901 27.2835 13.153 27.934 10.9973 29.1632C8.89986 30.3592 7.13826 32.0634 5.87379 34.1178C3.922 31.0484 2.88448 27.485 2.885 23.8448L2.885 22.1553C2.885 22.1553 2.885 22.1552 2.885 22.1552C2.89059 17.0461 4.92263 12.1479 8.53529 8.53529C12.1479 4.92263 17.0461 2.89059 22.1552 2.885C22.1552 2.885 22.1553 2.885 22.1553 2.885H23.8447C23.8447 2.885 23.8448 2.885 23.8448 2.885C28.9539 2.89059 33.8521 4.92263 37.4647 8.53529C41.0774 12.148 43.1094 17.0462 43.115 22.1553V23.8448ZM23 21.995C21.8064 21.995 20.6396 21.6411 19.6471 20.9779C18.6547 20.3148 17.8812 19.3722 17.4244 18.2695C16.9676 17.1667 16.8481 15.9533 17.081 14.7826C17.3138 13.612 17.8886 12.5366 18.7326 11.6926C19.5766 10.8486 20.652 10.2738 21.8226 10.041C22.9933 9.8081 24.2067 9.92761 25.3095 10.3844C26.4122 10.8412 27.3548 11.6147 28.0179 12.6071C28.6811 13.5996 29.035 14.7664 29.035 15.96C29.035 17.5606 28.3992 19.0956 27.2674 20.2274C26.1356 21.3592 24.6006 21.995 23 21.995ZM22.1552 43.115C19.2621 43.1139 16.4064 42.4603 13.8009 41.2026C11.2197 39.9567 8.94985 38.1498 7.15704 35.9145C8.19482 33.9338 9.75034 32.2709 11.6586 31.1034C13.5899 29.9218 15.8084 29.2928 18.0724 29.285H27.9276C30.1917 29.2918 32.4103 29.9203 34.3415 31.102C36.2496 32.2697 37.8046 33.9331 38.8412 35.9144C37.0486 38.1496 34.779 39.9563 32.1982 41.2022C29.5929 42.4599 26.7376 43.1137 23.8448 43.115H22.1552Z" fill="#EE9505" stroke="#EE9505" stroke-width="0.25"/>
</svg>
