<svg width="50" height="50" viewBox="0 0 50 50" fill="none" xmlns="http://www.w3.org/2000/svg">
<mask id="path-1-outside-1_1_224" maskUnits="userSpaceOnUse" x="4" y="5" width="43" height="40" fill="black">
<rect fill="white" x="4" y="5" width="43" height="40"/>
<path d="M6.92898 44.3315H14.8254C15.3379 44.3289 15.8295 44.1275 16.1966 43.7699C16.5637 43.4122 16.7778 42.9261 16.7939 42.4138L18.7116 43.6885C18.8052 43.7455 18.9122 43.7766 19.0218 43.7788H39.5074C40.3631 43.7858 41.1906 43.4726 41.8272 42.9007C42.4638 42.3288 42.8636 41.5395 42.948 40.6879C42.9894 40.2052 42.9256 39.7192 42.7611 39.2634C42.5965 38.8077 42.3351 38.3931 41.9948 38.0482L41.9553 38.0088C42.5845 37.7972 43.1376 37.4053 43.5458 36.8818C43.954 36.3583 44.1992 35.7263 44.2509 35.0645C44.2863 34.5949 44.2233 34.1231 44.066 33.6793C43.9087 33.2354 43.6604 32.8293 43.3372 32.4869H43.3766C43.9628 32.3556 44.5024 32.0681 44.9384 31.6548C45.3743 31.2416 45.6903 30.7181 45.8528 30.1399C46.0153 29.5616 46.0182 28.9501 45.8613 28.3703C45.7044 27.7905 45.3935 27.264 44.9616 26.8466C44.8057 26.6903 44.6357 26.5487 44.4539 26.4236C44.9158 26.1127 45.2939 25.6927 45.5546 25.2008C45.8154 24.7088 45.9507 24.1602 45.9486 23.6034C45.9412 22.7108 45.5813 21.8572 44.9475 21.2286C44.3136 20.6001 43.4571 20.2474 42.5644 20.2474H33.6076V19.6834L34.5552 18.4087C36.4396 15.8758 37.4528 12.8006 37.443 9.64366C37.4438 9.16448 37.3499 8.68988 37.1667 8.24711C36.9835 7.80434 36.7146 7.40212 36.3755 7.06356C36.0364 6.72499 35.6338 6.45675 35.1907 6.27423C34.7477 6.09172 34.2729 5.99853 33.7938 6.00002C33.6579 6.0004 33.5222 6.00982 33.3877 6.02822C32.6936 6.10751 32.0369 6.38466 31.4959 6.82667C30.9549 7.26867 30.5524 7.85689 30.3363 8.52123C29.868 9.96008 29.2199 11.334 28.4073 12.6105C28.3001 12.7797 28.1873 12.9489 28.0576 13.135C27.3247 14.2155 26.4755 15.2123 25.5251 16.1074C22.5787 19.0309 19.8632 22.1782 17.403 25.5211H16.839C16.8301 25.0044 16.619 24.5118 16.251 24.149C15.8829 23.7862 15.3873 23.5823 14.8705 23.5809H6.97411C6.45054 23.5809 5.94842 23.7888 5.5782 24.1591C5.20799 24.5293 5 25.0314 5 25.555V42.3518C4.99983 42.8682 5.20143 43.3642 5.56179 43.734C5.92216 44.1039 6.41277 44.3183 6.92898 44.3315ZM16.8277 26.6492H17.6794C17.7665 26.6498 17.8526 26.6303 17.9308 26.5922C18.0091 26.554 18.0775 26.4982 18.1306 26.4292C20.605 23.074 23.3376 19.9171 26.3034 16.9873C27.3059 16.0489 28.2041 15.0051 28.9826 13.8739C29.1179 13.6821 29.242 13.496 29.3605 13.3099C30.2194 11.9521 30.9071 10.4934 31.4079 8.96681C31.5522 8.49816 31.8304 8.08191 32.2082 7.76925C32.586 7.4566 33.0469 7.26119 33.5343 7.20704C33.9082 7.16049 34.2878 7.20148 34.6431 7.32677C34.9984 7.45206 35.3197 7.65823 35.5817 7.929C35.8154 8.16189 36.0006 8.43886 36.1265 8.74384C36.2523 9.04883 36.3164 9.37577 36.315 9.7057C36.3309 12.6291 35.3944 15.4782 33.6471 17.8221L32.5924 19.2435C32.5209 19.342 32.4815 19.4602 32.4796 19.5819V20.8791C32.4796 21.0287 32.539 21.1722 32.6448 21.278C32.7505 21.3837 32.894 21.4432 33.0436 21.4432H42.5926C43.1861 21.4431 43.7558 21.6769 44.1781 22.094C44.6004 22.511 44.8413 23.0776 44.8488 23.6711C44.8488 24.2695 44.6111 24.8433 44.188 25.2664C43.7649 25.6895 43.191 25.9272 42.5926 25.9272C42.443 25.9272 42.2996 25.9866 42.1938 26.0924C42.088 26.1982 42.0286 26.3417 42.0286 26.4912C42.0286 26.6408 42.088 26.7843 42.1938 26.8901C42.2996 26.9959 42.443 27.0553 42.5926 27.0553C42.8846 27.0533 43.1739 27.1103 43.4433 27.2227C43.7127 27.3351 43.9567 27.5007 44.1606 27.7096C44.4447 27.9876 44.6481 28.3375 44.7492 28.7219C44.8503 29.1064 44.8453 29.511 44.7348 29.8929C44.6243 30.2747 44.4124 30.6195 44.1216 30.8905C43.8308 31.1616 43.472 31.3487 43.0833 31.4322C42.8993 31.4817 42.7099 31.5082 42.5193 31.5111H40.94C40.7904 31.5111 40.647 31.5705 40.5412 31.6763C40.4354 31.7821 40.376 31.9256 40.376 32.0751C40.376 32.2247 40.4354 32.3682 40.5412 32.474C40.647 32.5798 40.7904 32.6392 40.94 32.6392C41.5303 32.6387 42.0973 32.8695 42.5193 33.2822C42.8297 33.6052 43.0369 34.0133 43.1146 34.4545C43.1922 34.8956 43.1368 35.35 42.9553 35.7595C42.7738 36.1691 42.4745 36.5153 42.0955 36.7542C41.7165 36.993 41.275 37.1136 40.8272 37.1007H39.5976C39.448 37.1007 39.3046 37.1601 39.1988 37.2659C39.093 37.3716 39.0336 37.5151 39.0336 37.6647C39.0336 37.8143 39.093 37.9577 39.1988 38.0635C39.3046 38.1693 39.448 38.2287 39.5976 38.2287C39.9072 38.228 40.2135 38.291 40.4977 38.4138C40.7818 38.5366 41.0377 38.7165 41.2493 38.9424C41.4609 39.1683 41.6238 39.4354 41.7278 39.7269C41.8318 40.0185 41.8746 40.3283 41.8538 40.6371C41.78 41.2022 41.4992 41.7197 41.0657 42.0896C40.6323 42.4595 40.077 42.6554 39.5074 42.6394H19.2023L16.8108 41.0545L16.8277 26.6492ZM6.08294 25.555C6.08294 25.3306 6.17208 25.1154 6.33074 24.9567C6.4894 24.798 6.7046 24.7089 6.92898 24.7089H14.8254C15.0498 24.7089 15.265 24.798 15.4237 24.9567C15.5823 25.1154 15.6715 25.3306 15.6715 25.555V42.3518C15.6715 42.5767 15.5825 42.7925 15.424 42.952C15.2655 43.1116 15.0503 43.202 14.8254 43.2035H6.92898C6.70408 43.202 6.4889 43.1116 6.33039 42.952C6.17189 42.7925 6.08293 42.5767 6.08294 42.3518V25.555Z"/>
</mask>
<path d="M6.92898 44.3315H14.8254C15.3379 44.3289 15.8295 44.1275 16.1966 43.7699C16.5637 43.4122 16.7778 42.9261 16.7939 42.4138L18.7116 43.6885C18.8052 43.7455 18.9122 43.7766 19.0218 43.7788H39.5074C40.3631 43.7858 41.1906 43.4726 41.8272 42.9007C42.4638 42.3288 42.8636 41.5395 42.948 40.6879C42.9894 40.2052 42.9256 39.7192 42.7611 39.2634C42.5965 38.8077 42.3351 38.3931 41.9948 38.0482L41.9553 38.0088C42.5845 37.7972 43.1376 37.4053 43.5458 36.8818C43.954 36.3583 44.1992 35.7263 44.2509 35.0645C44.2863 34.5949 44.2233 34.1231 44.066 33.6793C43.9087 33.2354 43.6604 32.8293 43.3372 32.4869H43.3766C43.9628 32.3556 44.5024 32.0681 44.9384 31.6548C45.3743 31.2416 45.6903 30.7181 45.8528 30.1399C46.0153 29.5616 46.0182 28.9501 45.8613 28.3703C45.7044 27.7905 45.3935 27.264 44.9616 26.8466C44.8057 26.6903 44.6357 26.5487 44.4539 26.4236C44.9158 26.1127 45.2939 25.6927 45.5546 25.2008C45.8154 24.7088 45.9507 24.1602 45.9486 23.6034C45.9412 22.7108 45.5813 21.8572 44.9475 21.2286C44.3136 20.6001 43.4571 20.2474 42.5644 20.2474H33.6076V19.6834L34.5552 18.4087C36.4396 15.8758 37.4528 12.8006 37.443 9.64366C37.4438 9.16448 37.3499 8.68988 37.1667 8.24711C36.9835 7.80434 36.7146 7.40212 36.3755 7.06356C36.0364 6.72499 35.6338 6.45675 35.1907 6.27423C34.7477 6.09172 34.2729 5.99853 33.7938 6.00002C33.6579 6.0004 33.5222 6.00982 33.3877 6.02822C32.6936 6.10751 32.0369 6.38466 31.4959 6.82667C30.9549 7.26867 30.5524 7.85689 30.3363 8.52123C29.868 9.96008 29.2199 11.334 28.4073 12.6105C28.3001 12.7797 28.1873 12.9489 28.0576 13.135C27.3247 14.2155 26.4755 15.2123 25.5251 16.1074C22.5787 19.0309 19.8632 22.1782 17.403 25.5211H16.839C16.8301 25.0044 16.619 24.5118 16.251 24.149C15.8829 23.7862 15.3873 23.5823 14.8705 23.5809H6.97411C6.45054 23.5809 5.94842 23.7888 5.5782 24.1591C5.20799 24.5293 5 25.0314 5 25.555V42.3518C4.99983 42.8682 5.20143 43.3642 5.56179 43.734C5.92216 44.1039 6.41277 44.3183 6.92898 44.3315ZM16.8277 26.6492H17.6794C17.7665 26.6498 17.8526 26.6303 17.9308 26.5922C18.0091 26.554 18.0775 26.4982 18.1306 26.4292C20.605 23.074 23.3376 19.9171 26.3034 16.9873C27.3059 16.0489 28.2041 15.0051 28.9826 13.8739C29.1179 13.6821 29.242 13.496 29.3605 13.3099C30.2194 11.9521 30.9071 10.4934 31.4079 8.96681C31.5522 8.49816 31.8304 8.08191 32.2082 7.76925C32.586 7.4566 33.0469 7.26119 33.5343 7.20704C33.9082 7.16049 34.2878 7.20148 34.6431 7.32677C34.9984 7.45206 35.3197 7.65823 35.5817 7.929C35.8154 8.16189 36.0006 8.43886 36.1265 8.74384C36.2523 9.04883 36.3164 9.37577 36.315 9.7057C36.3309 12.6291 35.3944 15.4782 33.6471 17.8221L32.5924 19.2435C32.5209 19.342 32.4815 19.4602 32.4796 19.5819V20.8791C32.4796 21.0287 32.539 21.1722 32.6448 21.278C32.7505 21.3837 32.894 21.4432 33.0436 21.4432H42.5926C43.1861 21.4431 43.7558 21.6769 44.1781 22.094C44.6004 22.511 44.8413 23.0776 44.8488 23.6711C44.8488 24.2695 44.6111 24.8433 44.188 25.2664C43.7649 25.6895 43.191 25.9272 42.5926 25.9272C42.443 25.9272 42.2996 25.9866 42.1938 26.0924C42.088 26.1982 42.0286 26.3417 42.0286 26.4912C42.0286 26.6408 42.088 26.7843 42.1938 26.8901C42.2996 26.9959 42.443 27.0553 42.5926 27.0553C42.8846 27.0533 43.1739 27.1103 43.4433 27.2227C43.7127 27.3351 43.9567 27.5007 44.1606 27.7096C44.4447 27.9876 44.6481 28.3375 44.7492 28.7219C44.8503 29.1064 44.8453 29.511 44.7348 29.8929C44.6243 30.2747 44.4124 30.6195 44.1216 30.8905C43.8308 31.1616 43.472 31.3487 43.0833 31.4322C42.8993 31.4817 42.7099 31.5082 42.5193 31.5111H40.94C40.7904 31.5111 40.647 31.5705 40.5412 31.6763C40.4354 31.7821 40.376 31.9256 40.376 32.0751C40.376 32.2247 40.4354 32.3682 40.5412 32.474C40.647 32.5798 40.7904 32.6392 40.94 32.6392C41.5303 32.6387 42.0973 32.8695 42.5193 33.2822C42.8297 33.6052 43.0369 34.0133 43.1146 34.4545C43.1922 34.8956 43.1368 35.35 42.9553 35.7595C42.7738 36.1691 42.4745 36.5153 42.0955 36.7542C41.7165 36.993 41.275 37.1136 40.8272 37.1007H39.5976C39.448 37.1007 39.3046 37.1601 39.1988 37.2659C39.093 37.3716 39.0336 37.5151 39.0336 37.6647C39.0336 37.8143 39.093 37.9577 39.1988 38.0635C39.3046 38.1693 39.448 38.2287 39.5976 38.2287C39.9072 38.228 40.2135 38.291 40.4977 38.4138C40.7818 38.5366 41.0377 38.7165 41.2493 38.9424C41.4609 39.1683 41.6238 39.4354 41.7278 39.7269C41.8318 40.0185 41.8746 40.3283 41.8538 40.6371C41.78 41.2022 41.4992 41.7197 41.0657 42.0896C40.6323 42.4595 40.077 42.6554 39.5074 42.6394H19.2023L16.8108 41.0545L16.8277 26.6492ZM6.08294 25.555C6.08294 25.3306 6.17208 25.1154 6.33074 24.9567C6.4894 24.798 6.7046 24.7089 6.92898 24.7089H14.8254C15.0498 24.7089 15.265 24.798 15.4237 24.9567C15.5823 25.1154 15.6715 25.3306 15.6715 25.555V42.3518C15.6715 42.5767 15.5825 42.7925 15.424 42.952C15.2655 43.1116 15.0503 43.202 14.8254 43.2035H6.92898C6.70408 43.202 6.4889 43.1116 6.33039 42.952C6.17189 42.7925 6.08293 42.5767 6.08294 42.3518V25.555Z" fill="#EE9505"/>
<path d="M6.92898 44.3315H14.8254C15.3379 44.3289 15.8295 44.1275 16.1966 43.7699C16.5637 43.4122 16.7778 42.9261 16.7939 42.4138L18.7116 43.6885C18.8052 43.7455 18.9122 43.7766 19.0218 43.7788H39.5074C40.3631 43.7858 41.1906 43.4726 41.8272 42.9007C42.4638 42.3288 42.8636 41.5395 42.948 40.6879C42.9894 40.2052 42.9256 39.7192 42.7611 39.2634C42.5965 38.8077 42.3351 38.3931 41.9948 38.0482L41.9553 38.0088C42.5845 37.7972 43.1376 37.4053 43.5458 36.8818C43.954 36.3583 44.1992 35.7263 44.2509 35.0645C44.2863 34.5949 44.2233 34.1231 44.066 33.6793C43.9087 33.2354 43.6604 32.8293 43.3372 32.4869H43.3766C43.9628 32.3556 44.5024 32.0681 44.9384 31.6548C45.3743 31.2416 45.6903 30.7181 45.8528 30.1399C46.0153 29.5616 46.0182 28.9501 45.8613 28.3703C45.7044 27.7905 45.3935 27.264 44.9616 26.8466C44.8057 26.6903 44.6357 26.5487 44.4539 26.4236C44.9158 26.1127 45.2939 25.6927 45.5546 25.2008C45.8154 24.7088 45.9507 24.1602 45.9486 23.6034C45.9412 22.7108 45.5813 21.8572 44.9475 21.2286C44.3136 20.6001 43.4571 20.2474 42.5644 20.2474H33.6076V19.6834L34.5552 18.4087C36.4396 15.8758 37.4528 12.8006 37.443 9.64366C37.4438 9.16448 37.3499 8.68988 37.1667 8.24711C36.9835 7.80434 36.7146 7.40212 36.3755 7.06356C36.0364 6.72499 35.6338 6.45675 35.1907 6.27423C34.7477 6.09172 34.2729 5.99853 33.7938 6.00002C33.6579 6.0004 33.5222 6.00982 33.3877 6.02822C32.6936 6.10751 32.0369 6.38466 31.4959 6.82667C30.9549 7.26867 30.5524 7.85689 30.3363 8.52123C29.868 9.96008 29.2199 11.334 28.4073 12.6105C28.3001 12.7797 28.1873 12.9489 28.0576 13.135C27.3247 14.2155 26.4755 15.2123 25.5251 16.1074C22.5787 19.0309 19.8632 22.1782 17.403 25.5211H16.839C16.8301 25.0044 16.619 24.5118 16.251 24.149C15.8829 23.7862 15.3873 23.5823 14.8705 23.5809H6.97411C6.45054 23.5809 5.94842 23.7888 5.5782 24.1591C5.20799 24.5293 5 25.0314 5 25.555V42.3518C4.99983 42.8682 5.20143 43.3642 5.56179 43.734C5.92216 44.1039 6.41277 44.3183 6.92898 44.3315ZM16.8277 26.6492H17.6794C17.7665 26.6498 17.8526 26.6303 17.9308 26.5922C18.0091 26.554 18.0775 26.4982 18.1306 26.4292C20.605 23.074 23.3376 19.9171 26.3034 16.9873C27.3059 16.0489 28.2041 15.0051 28.9826 13.8739C29.1179 13.6821 29.242 13.496 29.3605 13.3099C30.2194 11.9521 30.9071 10.4934 31.4079 8.96681C31.5522 8.49816 31.8304 8.08191 32.2082 7.76925C32.586 7.4566 33.0469 7.26119 33.5343 7.20704C33.9082 7.16049 34.2878 7.20148 34.6431 7.32677C34.9984 7.45206 35.3197 7.65823 35.5817 7.929C35.8154 8.16189 36.0006 8.43886 36.1265 8.74384C36.2523 9.04883 36.3164 9.37577 36.315 9.7057C36.3309 12.6291 35.3944 15.4782 33.6471 17.8221L32.5924 19.2435C32.5209 19.342 32.4815 19.4602 32.4796 19.5819V20.8791C32.4796 21.0287 32.539 21.1722 32.6448 21.278C32.7505 21.3837 32.894 21.4432 33.0436 21.4432H42.5926C43.1861 21.4431 43.7558 21.6769 44.1781 22.094C44.6004 22.511 44.8413 23.0776 44.8488 23.6711C44.8488 24.2695 44.6111 24.8433 44.188 25.2664C43.7649 25.6895 43.191 25.9272 42.5926 25.9272C42.443 25.9272 42.2996 25.9866 42.1938 26.0924C42.088 26.1982 42.0286 26.3417 42.0286 26.4912C42.0286 26.6408 42.088 26.7843 42.1938 26.8901C42.2996 26.9959 42.443 27.0553 42.5926 27.0553C42.8846 27.0533 43.1739 27.1103 43.4433 27.2227C43.7127 27.3351 43.9567 27.5007 44.1606 27.7096C44.4447 27.9876 44.6481 28.3375 44.7492 28.7219C44.8503 29.1064 44.8453 29.511 44.7348 29.8929C44.6243 30.2747 44.4124 30.6195 44.1216 30.8905C43.8308 31.1616 43.472 31.3487 43.0833 31.4322C42.8993 31.4817 42.7099 31.5082 42.5193 31.5111H40.94C40.7904 31.5111 40.647 31.5705 40.5412 31.6763C40.4354 31.7821 40.376 31.9256 40.376 32.0751C40.376 32.2247 40.4354 32.3682 40.5412 32.474C40.647 32.5798 40.7904 32.6392 40.94 32.6392C41.5303 32.6387 42.0973 32.8695 42.5193 33.2822C42.8297 33.6052 43.0369 34.0133 43.1146 34.4545C43.1922 34.8956 43.1368 35.35 42.9553 35.7595C42.7738 36.1691 42.4745 36.5153 42.0955 36.7542C41.7165 36.993 41.275 37.1136 40.8272 37.1007H39.5976C39.448 37.1007 39.3046 37.1601 39.1988 37.2659C39.093 37.3716 39.0336 37.5151 39.0336 37.6647C39.0336 37.8143 39.093 37.9577 39.1988 38.0635C39.3046 38.1693 39.448 38.2287 39.5976 38.2287C39.9072 38.228 40.2135 38.291 40.4977 38.4138C40.7818 38.5366 41.0377 38.7165 41.2493 38.9424C41.4609 39.1683 41.6238 39.4354 41.7278 39.7269C41.8318 40.0185 41.8746 40.3283 41.8538 40.6371C41.78 41.2022 41.4992 41.7197 41.0657 42.0896C40.6323 42.4595 40.077 42.6554 39.5074 42.6394H19.2023L16.8108 41.0545L16.8277 26.6492ZM6.08294 25.555C6.08294 25.3306 6.17208 25.1154 6.33074 24.9567C6.4894 24.798 6.7046 24.7089 6.92898 24.7089H14.8254C15.0498 24.7089 15.265 24.798 15.4237 24.9567C15.5823 25.1154 15.6715 25.3306 15.6715 25.555V42.3518C15.6715 42.5767 15.5825 42.7925 15.424 42.952C15.2655 43.1116 15.0503 43.202 14.8254 43.2035H6.92898C6.70408 43.202 6.4889 43.1116 6.33039 42.952C6.17189 42.7925 6.08293 42.5767 6.08294 42.3518V25.555Z" stroke="#EE9505" stroke-width="0.5" mask="url(#path-1-outside-1_1_224)"/>
</svg>
