<svg width="26" height="26" viewBox="0 0 26 26" fill="none" xmlns="http://www.w3.org/2000/svg">
<path d="M14.2852 0.501294C15.1974 0.497794 16.1096 0.506961 17.0215 0.528794L17.264 0.537544C17.544 0.547544 17.8202 0.560044 18.154 0.575044C19.484 0.637544 20.3915 0.847544 21.1877 1.15629C22.0127 1.47379 22.7077 1.90379 23.4027 2.59879C24.0382 3.2233 24.53 3.97873 24.844 4.81254C25.1527 5.60879 25.3627 6.51754 25.4252 7.84754C25.4402 8.18004 25.4527 8.45754 25.4627 8.73754L25.4702 8.98004C25.4924 9.89153 25.502 10.8033 25.499 11.715L25.5002 12.6475V14.285C25.5033 15.1972 25.4937 16.1094 25.4715 17.0213L25.464 17.2638C25.454 17.5438 25.4415 17.82 25.4265 18.1538C25.364 19.4838 25.1515 20.3913 24.844 21.1875C24.531 22.0222 24.0391 22.7783 23.4027 23.4025C22.7777 24.0379 22.0219 24.5297 21.1877 24.8438C20.3915 25.1525 19.484 25.3625 18.154 25.425C17.8202 25.44 17.544 25.4525 17.264 25.4625L17.0215 25.47C16.1096 25.4923 15.1974 25.5019 14.2852 25.4988L13.3527 25.5H11.7165C10.8043 25.5031 9.89214 25.4935 8.98023 25.4713L8.73773 25.4638C8.441 25.453 8.14432 25.4405 7.84773 25.4263C6.51773 25.3638 5.61023 25.1513 4.81273 24.8438C3.97859 24.5305 3.22303 24.0386 2.59898 23.4025C1.96279 22.7779 1.47051 22.022 1.15648 21.1875C0.847733 20.3913 0.637733 19.4838 0.575233 18.1538C0.561312 17.8572 0.548811 17.5605 0.537733 17.2638L0.531483 17.0213C0.508438 16.1094 0.49802 15.1972 0.500233 14.285V11.715C0.496744 10.8033 0.505912 9.89154 0.527733 8.98004L0.536483 8.73754C0.546483 8.45754 0.558983 8.18004 0.573983 7.84754C0.636483 6.51629 0.846483 5.61004 1.15523 4.81254C1.46945 3.97832 1.96269 3.2231 2.60023 2.60004C3.22385 1.96348 3.97893 1.47076 4.81273 1.15629C5.61023 0.847544 6.51648 0.637544 7.84773 0.575044L8.73773 0.537544L8.98023 0.531294C9.89171 0.50826 10.8035 0.497842 11.7152 0.500044L14.2852 0.501294ZM13.0002 6.75129C12.1721 6.73958 11.3499 6.89257 10.5815 7.20138C9.81298 7.51018 9.11354 7.96864 8.52379 8.55011C7.93404 9.13158 7.46573 9.82447 7.14609 10.5885C6.82645 11.3525 6.66185 12.1725 6.66185 13.0007C6.66185 13.8289 6.82645 14.6488 7.14609 15.4128C7.46573 16.1769 7.93404 16.8698 8.52379 17.4512C9.11354 18.0327 9.81298 18.4912 10.5815 18.8C11.3499 19.1088 12.1721 19.2618 13.0002 19.25C14.6578 19.25 16.2475 18.5916 17.4197 17.4195C18.5918 16.2474 19.2502 14.6576 19.2502 13C19.2502 11.3424 18.5918 9.75273 17.4197 8.58063C16.2475 7.40852 14.6578 6.75129 13.0002 6.75129ZM13.0002 9.25129C13.4984 9.24212 13.9933 9.33229 14.4562 9.51655C14.9191 9.70082 15.3407 9.97547 15.6962 10.3245C16.0518 10.6735 16.3342 11.0898 16.527 11.5492C16.7199 12.0086 16.8192 12.5018 16.8193 13C16.8194 13.4983 16.7202 13.9915 16.5275 14.4509C16.3348 14.9104 16.0525 15.3268 15.6971 15.676C15.3417 16.0251 14.9202 16.2999 14.4574 16.4843C13.9946 16.6687 13.4996 16.7591 13.0015 16.75C12.0069 16.75 11.0531 16.355 10.3498 15.6517C9.64657 14.9484 9.25148 13.9946 9.25148 13C9.25148 12.0055 9.64657 11.0517 10.3498 10.3484C11.0531 9.64513 12.0069 9.25004 13.0015 9.25004L13.0002 9.25129ZM19.5627 4.87629C19.1595 4.89243 18.7781 5.06398 18.4985 5.35501C18.2189 5.64603 18.0627 6.03396 18.0627 6.43754C18.0627 6.84113 18.2189 7.22905 18.4985 7.52008C18.7781 7.81111 19.1595 7.98265 19.5627 7.99879C19.9771 7.99879 20.3746 7.83417 20.6676 7.54115C20.9606 7.24812 21.1252 6.85069 21.1252 6.43629C21.1252 6.02189 20.9606 5.62447 20.6676 5.33144C20.3746 5.03841 19.9771 4.87379 19.5627 4.87379V4.87629Z" fill="#EE9505"/>
</svg>
