<svg width="46" height="50" viewBox="0 0 46 50" fill="none" xmlns="http://www.w3.org/2000/svg">
<path fill-rule="evenodd" clip-rule="evenodd" d="M38.6164 7.3C38.8117 7.49534 38.9214 7.76025 38.9214 8.03646C38.9214 8.31267 38.8117 8.57758 38.6164 8.77292L29.6894 17.7C29.4929 17.8897 29.2298 17.9947 28.9566 17.9924C28.6835 17.99 28.4223 17.8804 28.2291 17.6873C28.036 17.4942 27.9264 17.2329 27.9241 16.9598C27.9217 16.6867 28.0267 16.4235 28.2164 16.2271L37.1435 7.3C37.3389 7.10472 37.6038 6.99501 37.88 6.99501C38.1562 6.99501 38.4211 7.10472 38.6164 7.3ZM30.1435 10.1188C30.2644 10.1246 30.3852 10.1058 30.4986 10.0636C30.612 10.0214 30.7156 9.95656 30.8032 9.87309C30.8908 9.78962 30.9605 9.68923 31.0082 9.57801C31.0558 9.46678 31.0804 9.34704 31.0804 9.22604C31.0804 9.10504 31.0558 8.9853 31.0082 8.87408C30.9605 8.76285 30.8908 8.66246 30.8032 8.57899C30.7156 8.49552 30.612 8.43071 30.4986 8.38848C30.3852 8.34626 30.2644 8.32749 30.1435 8.33333C29.9142 8.34441 29.698 8.4433 29.5396 8.60951C29.3812 8.77571 29.2929 8.99647 29.2929 9.22604C29.2929 9.45561 29.3812 9.67638 29.5396 9.84258C29.698 10.0088 29.9142 10.1077 30.1435 10.1188ZM30.1435 12.2021C30.5343 12.2021 30.9213 12.1251 31.2824 11.9755C31.6435 11.826 31.9716 11.6068 32.2479 11.3304C32.5243 11.0541 32.7435 10.726 32.893 10.3649C33.0426 10.0039 33.1196 9.61686 33.1196 9.22604C33.1196 8.83522 33.0426 8.44823 32.893 8.08716C32.7435 7.72609 32.5243 7.39801 32.2479 7.12166C31.9716 6.84531 31.6435 6.6261 31.2824 6.47654C30.9213 6.32698 30.5343 6.25 30.1435 6.25C29.3542 6.25 28.5973 6.56355 28.0391 7.12166C27.481 7.67978 27.1675 8.43675 27.1675 9.22604C27.1675 10.0153 27.481 10.7723 28.0391 11.3304C28.5973 11.8885 29.3542 12.2021 30.1435 12.2021ZM36.6914 16.6667C36.8123 16.6725 36.9331 16.6537 37.0465 16.6115C37.1599 16.5693 37.2635 16.5045 37.3511 16.421C37.4387 16.3375 37.5085 16.2371 37.5561 16.1259C37.6038 16.0147 37.6283 15.895 37.6283 15.774C37.6283 15.653 37.6038 15.5332 37.5561 15.422C37.5085 15.3108 37.4387 15.2104 37.3511 15.1269C37.2635 15.0434 37.1599 14.9786 37.0465 14.9364C36.9331 14.8942 36.8123 14.8754 36.6914 14.8813C36.4621 14.8923 36.2459 14.9912 36.0875 15.1574C35.9292 15.3236 35.8408 15.5444 35.8408 15.774C35.8408 16.0035 35.9292 16.2243 36.0875 16.3905C36.2459 16.5567 36.4621 16.6556 36.6914 16.6667ZM36.6914 18.75C37.0889 18.7605 37.4844 18.6913 37.8547 18.5465C38.2249 18.4017 38.5624 18.1841 38.8473 17.9067C39.1321 17.6293 39.3585 17.2977 39.5131 16.9314C39.6676 16.5651 39.7473 16.1715 39.7473 15.774C39.7473 15.3764 39.6676 14.9828 39.5131 14.6165C39.3585 14.2502 39.1321 13.9186 38.8473 13.6412C38.5624 13.3638 38.2249 13.1463 37.8547 13.0014C37.4844 12.8566 37.0889 12.7874 36.6914 12.7979C35.9158 12.8184 35.1788 13.141 34.6374 13.6969C34.096 14.2527 33.7931 14.998 33.7931 15.774C33.7931 16.5499 34.096 17.2952 34.6374 17.851C35.1788 18.4069 35.9158 18.7295 36.6914 18.75Z" fill="#EE9505"/>
<path fill-rule="evenodd" clip-rule="evenodd" d="M13.2083 -7.74767e-05C11.827 -7.74767e-05 10.5022 0.548656 9.52548 1.52541C8.54873 2.50216 7.99999 3.82692 7.99999 5.20826V27.0833H5.31249C0.716661 27.0833 -1.62709 32.602 1.56249 35.9083L13.6271 48.4083C14.1129 48.9117 14.6951 49.3121 15.339 49.5856C15.983 49.859 16.6754 50 17.375 50C18.0746 50 18.767 49.859 19.4109 49.5856C20.0549 49.3121 20.6371 48.9117 21.1229 48.4083L33.1854 35.9083C36.3771 32.6041 34.0333 27.0833 29.4375 27.0833H26.75V23.0749C28.6752 24.2881 30.895 24.9527 33.17 24.9971C35.4451 25.0416 37.6892 24.4641 39.6603 23.3271C41.6313 22.19 43.2546 20.5365 44.3551 18.5448C45.4556 16.5531 45.9915 14.2988 45.9051 12.0249C45.8187 9.75099 45.1132 7.54384 43.8648 5.64138C42.6163 3.73893 40.8722 2.21336 38.8206 1.22917C36.7689 0.24498 34.4875 -0.160496 32.2223 0.056464C29.9572 0.273424 27.7942 1.10459 25.9667 2.46034C25.4994 1.70759 24.8477 1.08655 24.0734 0.656001C23.2991 0.225448 22.4276 -0.000369529 21.5417 -7.74767e-05H13.2083ZM13.2083 2.08326C12.3795 2.08326 11.5847 2.4125 10.9986 2.99855C10.4126 3.5846 10.0833 4.37945 10.0833 5.20826V28.1249C10.0833 28.4012 9.97358 28.6661 9.77823 28.8615C9.58288 29.0568 9.31793 29.1666 9.04166 29.1666H5.31249C2.55416 29.1666 1.14791 32.4791 3.06249 34.4624L15.125 46.9624C15.4165 47.2649 15.766 47.5054 16.1526 47.6697C16.5392 47.8341 16.9549 47.9188 17.375 47.9188C17.7951 47.9188 18.2108 47.8341 18.5974 47.6697C18.984 47.5054 19.3335 47.2649 19.625 46.9624L31.6875 34.4624C33.6021 32.477 32.1958 29.1666 29.4375 29.1666H25.7083C25.4321 29.1666 25.1671 29.0568 24.9718 28.8615C24.7764 28.6661 24.6667 28.4012 24.6667 28.1249V21.427C23.4776 20.2645 22.5333 18.8757 21.8892 17.3425C21.2452 15.8094 20.9145 14.1629 20.9167 12.4999C20.9123 9.28737 22.149 6.19731 24.3687 3.87492C24.1159 3.33895 23.7159 2.88593 23.2153 2.56869C22.7147 2.25146 22.1343 2.0831 21.5417 2.08326H13.2083ZM33.4167 22.9166C36.1793 22.9166 38.8288 21.8191 40.7824 19.8656C42.7359 17.9121 43.8333 15.2626 43.8333 12.4999C43.8333 9.73725 42.7359 7.08773 40.7824 5.13423C38.8288 3.18072 36.1793 2.08326 33.4167 2.08326C30.654 2.08326 28.0045 3.18072 26.051 5.13423C24.0975 7.08773 23 9.73725 23 12.4999C23 15.2626 24.0975 17.9121 26.051 19.8656C28.0045 21.8191 30.654 22.9166 33.4167 22.9166Z" fill="#EE9505"/>
<path fill-rule="evenodd" clip-rule="evenodd" d="M38.6165 8.77077C38.7198 8.6756 38.8027 8.56053 38.8604 8.43249C38.918 8.30444 38.9492 8.16606 38.952 8.02566C38.9548 7.88527 38.9292 7.74575 38.8767 7.6155C38.8242 7.48525 38.7459 7.36696 38.6466 7.26774C38.5472 7.16851 38.4288 7.0904 38.2985 7.0381C38.1682 6.9858 38.0286 6.96039 37.8882 6.9634C37.7478 6.96641 37.6095 6.99777 37.4815 7.0556C37.3536 7.11344 37.2386 7.19655 37.1436 7.29993L28.2165 16.227C28.117 16.3231 28.0377 16.4381 27.9831 16.5651C27.9285 16.6922 27.8997 16.8289 27.8985 16.9672C27.8973 17.1055 27.9237 17.2427 27.9761 17.3707C28.0284 17.4987 28.1058 17.615 28.2036 17.7128C28.3014 17.8107 28.4177 17.888 28.5457 17.9404C28.6737 17.9928 28.8109 18.0191 28.9492 18.0179C29.0875 18.0167 29.2242 17.988 29.3513 17.9334C29.4784 17.8788 29.5933 17.7994 29.6894 17.6999L38.6165 8.77077ZM33.1186 9.22702C33.1186 10.0163 32.805 10.7733 32.2469 11.3314C31.6888 11.8895 30.9318 12.2031 30.1425 12.2031C29.3533 12.2031 28.5963 11.8895 28.0382 11.3314C27.4801 10.7733 27.1665 10.0163 27.1665 9.22702C27.1665 8.43772 27.4801 7.68076 28.0382 7.12264C28.5963 6.56452 29.3533 6.25098 30.1425 6.25098C30.9318 6.25098 31.6888 6.56452 32.2469 7.12264C32.805 7.68076 33.1186 8.43772 33.1186 9.22702ZM39.6665 15.7708C39.677 16.1682 39.6078 16.5637 39.463 16.934C39.3182 17.3043 39.1006 17.6418 38.8232 17.9266C38.5458 18.2114 38.2142 18.4378 37.8479 18.5924C37.4816 18.747 37.088 18.8266 36.6905 18.8266C36.2929 18.8266 35.8993 18.747 35.533 18.5924C35.1667 18.4378 34.8351 18.2114 34.5577 17.9266C34.2803 17.6418 34.0628 17.3043 33.9179 16.934C33.7731 16.5637 33.7039 16.1682 33.7144 15.7708C33.7349 14.9951 34.0575 14.2581 34.6134 13.7167C35.1693 13.1754 35.9145 12.8724 36.6905 12.8724C37.4664 12.8724 38.2117 13.1754 38.7676 13.7167C39.3234 14.2581 39.646 14.9951 39.6665 15.7708ZM31.0353 9.2291C31.0411 9.34996 31.0223 9.47075 30.9801 9.58414C30.9379 9.69754 30.8731 9.80117 30.7896 9.88878C30.7061 9.97638 30.6057 10.0461 30.4945 10.0938C30.3833 10.1414 30.2635 10.166 30.1425 10.166C30.0215 10.166 29.9018 10.1414 29.7906 10.0938C29.6794 10.0461 29.579 9.97638 29.4955 9.88878C29.412 9.80117 29.3472 9.69754 29.305 9.58414C29.2628 9.47075 29.244 9.34996 29.2498 9.2291C29.2609 8.9998 29.3598 8.78356 29.526 8.62519C29.6922 8.46683 29.913 8.37849 30.1425 8.37849C30.3721 8.37849 30.5929 8.46683 30.7591 8.62519C30.9253 8.78356 31.0242 8.9998 31.0353 9.2291ZM36.6915 16.6666C36.8124 16.6724 36.9332 16.6537 37.0465 16.6115C37.1599 16.5692 37.2636 16.5044 37.3512 16.4209C37.4388 16.3375 37.5085 16.2371 37.5562 16.1259C37.6038 16.0146 37.6284 15.8949 37.6284 15.7739C37.6284 15.6529 37.6038 15.5332 37.5562 15.4219C37.5085 15.3107 37.4388 15.2103 37.3512 15.1268C37.2636 15.0434 37.1599 14.9786 37.0465 14.9363C36.9332 14.8941 36.8124 14.8753 36.6915 14.8812C36.4622 14.8923 36.246 14.9912 36.0876 15.1574C35.9292 15.3236 35.8409 15.5443 35.8409 15.7739C35.8409 16.0035 35.9292 16.2242 36.0876 16.3904C36.246 16.5566 36.4622 16.6555 36.6915 16.6666Z" fill="#EE9505"/>
</svg>
