<svg width="50" height="48" viewBox="0 0 50 48" fill="none" xmlns="http://www.w3.org/2000/svg">
<path d="M49.7102 23.1171L45.4615 17.351L45.5103 10.1879C45.5125 9.8701 45.4128 9.5599 45.2259 9.30283C45.039 9.04575 44.7746 8.8553 44.4716 8.75941L37.6429 6.59688L33.478 0.76827C33.0977 0.235573 32.4149 0.0159108 31.7958 0.221801L25 2.49031L18.2041 0.221215C17.5845 0.0152272 16.9018 0.234889 16.522 0.767684L12.3577 6.59571L5.5285 8.75941C5.2255 8.85518 4.96114 9.04551 4.77421 9.30249C4.58727 9.55947 4.48759 9.86959 4.48977 10.1874L4.53861 17.3505L0.289726 23.1166C0.101511 23.3725 0 23.6819 0 23.9996C0 24.3173 0.101511 24.6267 0.289726 24.8826L4.53851 30.6487L4.48967 37.8118C4.48747 38.1297 4.58714 38.4399 4.77407 38.697C4.961 38.954 5.22536 39.1445 5.52841 39.2404L12.357 41.4029L16.5219 47.2315C16.7069 47.4905 16.9702 47.6834 17.273 47.7817C17.5757 47.8801 17.9021 47.8788 18.204 47.778L24.9999 45.5095L31.7957 47.7786C32.0977 47.8793 32.424 47.8806 32.7268 47.7823C33.0296 47.6839 33.2928 47.4911 33.4779 47.2321L37.6422 41.4041L44.4716 39.2405C44.7746 39.1447 45.0389 38.9544 45.2259 38.6974C45.4128 38.4404 45.5125 38.1303 45.5103 37.8125L45.4615 30.6488L49.7102 24.8827C49.8984 24.6269 50 24.3176 50 23.9999C50 23.6823 49.8984 23.373 49.7102 23.1171ZM42.7715 29.2815C42.5811 29.5401 42.4794 29.8533 42.4816 30.1745L42.5263 36.7346L36.2702 38.7162C35.963 38.8131 35.6958 39.0074 35.5089 39.2698L31.6958 44.6073L25.4713 42.5293C25.1654 42.427 24.8345 42.427 24.5285 42.5293L18.3041 44.6073L14.4903 39.2692C14.303 39.0071 14.0359 38.8127 13.729 38.715L7.47352 36.734L7.51816 30.1739C7.52035 29.8528 7.41866 29.5395 7.22827 29.281L3.33618 23.9999L7.22788 18.7183C7.41828 18.4598 7.51997 18.1465 7.51777 17.8254L7.47313 11.2653L13.7292 9.28371C14.0364 9.18682 14.3036 8.99248 14.4905 8.73011L18.3036 3.39259L24.528 5.47054C24.834 5.5729 25.1649 5.5729 25.4709 5.47054L31.6953 3.39259L35.5091 8.7307C35.6964 8.99274 35.9635 9.18715 36.2704 9.28488L42.5259 11.2658L42.4812 17.826C42.479 18.1471 42.5807 18.4603 42.7711 18.7189L46.664 23.9999L42.7715 29.2815Z" fill="#EE9505"/>
<path d="M32.3186 17.3671L22.2103 27.476L17.6822 22.948C17.1007 22.3665 16.1591 22.3665 15.578 22.948C14.9971 23.5295 14.9965 24.4712 15.578 25.0522L21.1584 30.6327C21.4489 30.9231 21.8298 31.0684 22.2109 31.0684C22.5919 31.0684 22.9722 30.9231 23.2633 30.6327L34.424 19.4719C35.0056 18.8904 35.0056 17.9487 34.424 17.3677C33.8425 16.7866 32.8996 16.7861 32.3186 17.3671Z" fill="#EE9505"/>
</svg>
