<svg width="50" height="50" viewBox="0 0 50 50" fill="none" xmlns="http://www.w3.org/2000/svg">
<path d="M24.9998 49.0781C24.9039 49.078 24.8084 49.0662 24.7154 49.0429C4.03962 43.8742 2.75212 20.2538 2.84978 13.1382C2.87244 11.5437 4.08572 10.1874 5.67165 9.98118C14.6959 8.81478 20.9709 3.73821 23.2498 1.60931C23.7255 1.1676 24.3506 0.922119 24.9998 0.922119C25.6489 0.922119 26.2741 1.1676 26.7498 1.60931C29.0279 3.73821 35.3029 8.81478 44.3271 9.98118C45.9131 10.1867 47.1263 11.5437 47.149 13.1374C47.2474 20.2531 45.9623 43.8726 25.2834 49.0421C25.1908 49.0661 25.0955 49.0782 24.9998 49.0781ZM24.9998 3.26321C24.944 3.26301 24.8903 3.28427 24.8498 3.32259C22.4052 5.60618 15.6717 11.0531 5.97243 12.3062C5.76071 12.3332 5.5657 12.4353 5.42279 12.5938C5.27988 12.7523 5.19854 12.9569 5.19353 13.1702C5.10212 19.8179 6.26697 41.796 24.9998 46.6968C43.7349 41.796 44.8982 19.8171 44.806 13.1702C44.8009 12.9569 44.7195 12.7525 44.5766 12.594C44.4337 12.4355 44.2388 12.3334 44.0271 12.3062C34.3271 11.0523 27.5943 5.60618 25.1498 3.32259C25.1093 3.28427 25.0555 3.26301 24.9998 3.26321Z" fill="#EE9505"/>
<path d="M34.5736 17.8062C34.033 17.2835 33.1689 17.289 32.651 17.8163L21.1486 29.3187L17.3697 25.5546C17.2783 25.4577 17.0057 25.2312 16.3994 25.2195C16.0119 25.2195 15.6354 25.3437 15.4041 25.5554C15.1716 25.8031 15.0415 26.1297 15.04 26.4695C15.04 26.8531 15.1744 27.1695 15.4486 27.4359L20.1885 32.1913C20.4369 32.4484 20.7502 32.5788 21.1182 32.5788C21.483 32.5788 21.84 32.4359 22.0994 32.1851L34.5775 19.7312C35.0885 19.2109 35.0893 18.3499 34.5736 17.8062Z" fill="#EE9505"/>
</svg>
