<svg width="43" height="48" viewBox="0 0 43 48" fill="none" xmlns="http://www.w3.org/2000/svg">
<path d="M23.584 6.49097V2.15468H26.816C27.1017 2.15468 27.3758 2.04117 27.5778 1.83913C27.7799 1.63709 27.8934 1.36307 27.8934 1.07734C27.8934 0.791612 27.7799 0.517586 27.5778 0.315546C27.3758 0.113505 27.1017 0 26.816 0H18.1973C17.9116 0 17.6375 0.113505 17.4355 0.315546C17.2335 0.517586 17.12 0.791612 17.12 1.07734C17.12 1.36307 17.2335 1.63709 17.4355 1.83913C17.6375 2.04117 17.9116 2.15468 18.1973 2.15468H21.4293V6.46404C16.751 6.70979 12.3 8.55869 8.82444 11.6999L5.74864 8.6241L8.0326 6.34015C8.15501 6.24619 8.25582 6.12703 8.32818 5.99073C8.40055 5.85444 8.44279 5.70419 8.45205 5.55015C8.46131 5.39611 8.43737 5.24188 8.38185 5.0979C8.32633 4.95392 8.24052 4.82354 8.13024 4.7156C8.01996 4.60766 7.88778 4.52467 7.74264 4.47224C7.5975 4.41982 7.44279 4.39919 7.28899 4.41175C7.13518 4.4243 6.98587 4.46975 6.85116 4.54502C6.71644 4.6203 6.59947 4.72363 6.50816 4.84803L3.46468 7.89152L0.42119 10.935C0.219037 11.1372 0.105469 11.4113 0.105469 11.6972C0.105469 11.9831 0.219037 12.2573 0.42119 12.4594C0.623343 12.6616 0.897521 12.7752 1.18341 12.7752C1.4693 12.7752 1.74347 12.6616 1.94563 12.4594L4.22959 10.1755L7.30539 13.2513C4.20151 16.7052 2.36426 21.1119 2.09531 25.7478C1.82636 30.3836 3.14169 34.9732 5.82534 38.7629C8.50898 42.5526 12.4014 45.3172 16.8636 46.6027C21.3258 47.8883 26.0925 47.6184 30.3811 45.8374C34.6696 44.0564 38.2252 40.8702 40.4639 36.8018C42.7027 32.7334 43.4916 28.0247 42.7011 23.4488C41.9106 18.8729 39.5877 14.7018 36.1138 11.6203C32.64 8.53874 28.2215 6.72999 23.584 6.49097ZM22.5067 45.2752C18.8843 45.2752 15.3434 44.2011 12.3315 42.1886C9.31966 40.1762 6.97221 37.3158 5.58601 33.9692C4.19981 30.6226 3.83711 26.9401 4.54379 23.3874C5.25047 19.8347 6.99479 16.5713 9.55615 14.0099C12.1175 11.4486 15.3809 9.70425 18.9336 8.99757C22.4863 8.29089 26.1688 8.65358 29.5154 10.0398C32.862 11.426 35.7224 13.7734 37.7348 16.7853C39.7473 19.7971 40.8214 23.3381 40.8214 26.9604C40.8143 31.8131 38.8816 36.4647 35.4477 39.8935C32.0137 43.3224 27.3594 45.2483 22.5067 45.2483V45.2752Z" fill="#EE9505"/>
<path d="M23.5842 22.953V15.3039C23.5842 15.0182 23.4707 14.7441 23.2686 14.5421C23.0666 14.3401 22.7926 14.2266 22.5068 14.2266C22.2211 14.2266 21.9471 14.3401 21.745 14.5421C21.543 14.7441 21.4295 15.0182 21.4295 15.3039V22.953C20.1216 23.22 18.9593 23.9631 18.1682 25.0383C17.377 26.1135 17.0132 27.4441 17.1474 28.7723C17.2816 30.1004 17.9041 31.3315 18.8943 32.2267C19.8846 33.1219 21.1719 33.6176 22.5068 33.6176C23.8417 33.6176 25.1291 33.1219 26.1193 32.2267C27.1095 31.3315 27.7321 30.1004 27.8663 28.7723C28.0004 27.4441 27.6367 26.1135 26.8455 25.0383C26.0543 23.9631 24.8921 23.22 23.5842 22.953ZM22.5068 31.464C21.8676 31.464 21.2427 31.2744 20.7112 30.9193C20.1797 30.5642 19.7655 30.0594 19.5208 29.4688C19.2762 28.8782 19.2122 28.2284 19.3369 27.6014C19.4616 26.9745 19.7694 26.3986 20.2214 25.9466C20.6735 25.4946 21.2493 25.1868 21.8763 25.0621C22.5032 24.9374 23.1531 25.0014 23.7437 25.246C24.3342 25.4906 24.839 25.9049 25.1942 26.4364C25.5493 26.9679 25.7389 27.5927 25.7389 28.232C25.7389 29.0892 25.3983 29.9112 24.7922 30.5174C24.1861 31.1235 23.364 31.464 22.5068 31.464Z" fill="#EE9505"/>
</svg>
